# xmcd
# 
# Track frame offsets:
#     150
#     11616
#     23955
#     37577
#     49952
#     62598
#     75308
#     87568
#     99686
#     111447
#     124202
#     137850
#     148572
#     160727
#     171154
#     185135
#     196668
#     206474
#     217676
#     229894
# 
# Disc length: 3219
# 
# Revision: 0
# Processed by: cddbd v1.5.2PL0 Copyright (c) Steve Scherf et al.
# Submitted via: fre:ac v1.0.17
# 
DISCID=110c9114
DTITLE=Various Artist - COUNTRY LOVE
DYEAR=2001
DGENRE=Country
TTITLE0=TEX RITTER - HAVE I TOLD YOU LATELY THAT I LOVE YOU
TTITLE1=LYNN ANDERSON - STAND BY YOUR MAN
TTITLE2=KENNY ROGERS - I,M GONNA SING YOU A SAD SONG SUZIE
TTITLE3=BILLIE JO SPEARS - THE CHEATING KIND
TTITLE4=SLIM WHITMAN - TENNESSEE WALTZ
TTITLE5=BILL MONROE - I,M BLUE,I,M LONESOME
TTITLE6=FARON YOUNG - COUNTRY GIRL
TTITLE7=HANK WILLIAMS - YOUR CHEATING HEART
TTITLE8=ROY DRUSKY - THREE HEARTS IN  A TANGLE
TTITLE9=FREDDY FENDER - SILVER WINGS
TTITLE10=THE ALISSONS - ROSES ARE RED,PEOPLE ARE BLUE
TTITLE11=JIMMY WAKELY - BEATIFUL BROWN EYES
TTITLE12=LEFTY FRIZZEL - I WANT TO BE WITH YOU ALWAYS
TTITLE13=TEX RITTER - HAVE I STAYED AWAY TOO LONG
TTITLE14=SLIM WHITMAN - INDIAN LOVE CALL
TTITLE15=BARBARA FAIRCHILD - CHEATIN IT
TTITLE16=HANK SHOW WITH ANITA CARTER - DOWN THE TRAIL OF ACHIN HEARTS
TTITLE17=FRANKIE LAINE - ANSWER ME
TTITLE18=BILL MONROE and HIS BLUEGRASS BOY - NO LETTER IN THE MAIL
TTITLE19=EDDY ARNOLD and HIS TENNESSEE PLAYBOYS - BOUQUET OF ROSES
EXTD=COUNTRY
EXTT0=COUNTRY LOVE
EXTT1=
EXTT2=
EXTT3=
EXTT4=
EXTT5=
EXTT6=
EXTT7=
EXTT8=
EXTT9=
EXTT10=
EXTT11=
EXTT12=
EXTT13=
EXTT14=
EXTT15=
EXTT16=
EXTT17=
EXTT18=
EXTT19=
PLAYORDER=
